<?xml version="1.0" encoding="UTF-8" standalone="no"?><!DOCTYPE svg PUBLIC "-//W3C//DTD SVG 1.1//EN" "http://www.w3.org/Graphics/SVG/1.1/DTD/svg11.dtd"><svg width="100%" height="100%" viewBox="0 0 1975 2496" version="1.1" xmlns="http://www.w3.org/2000/svg" xmlns:xlink="http://www.w3.org/1999/xlink" xml:space="preserve" xmlns:serif="http://www.serif.com/" style="fill-rule:evenodd;clip-rule:evenodd;stroke-linecap:round;stroke-linejoin:round;stroke-miterlimit:1.5;"><rect id="giraffe-trect-flat" x="4.005" y="2.43" width="1970.42" height="2489.3" style="fill:none;"/><clipPath id="_clip1"><rect x="4.005" y="2.43" width="1970.42" height="2489.3"/></clipPath><g clip-path="url(#_clip1)"><g id="Layer1"><rect x="-3131.41" y="-380.579" width="7183.86" height="5266.76" style="fill:#fff;"/></g><g id="Giraffe"><g id="Layer4"><ellipse cx="1023.33" cy="1064.39" rx="617.912" ry="618.65" style="fill:#cac3ff;"/></g><g id="Giraffe1" serif:id="Giraffe"><path d="M863.687,885.897C823.157,882.748 811.522,863.989 847.822,864.451C896.013,831.243 944.445,807.451 999.944,795.015C1016.82,788.062 1032.7,779.882 1047.54,770.406C1069.44,751.133 1094.67,739.715 1119.06,726.565C1088.31,727.529 981.632,749.953 960.471,752.785C955.592,752.029 932.184,785.892 919.068,810.234C914.267,811.449 911.102,807.483 909.995,800.809C923.506,773.841 937.631,750.002 954.105,738.108C1001.22,730.84 1149.12,701.083 1174.02,700.587C1175.64,700.554 1178.32,712.902 1178.21,719.074C1178.11,724.957 1172,729.923 1173.38,737.617C1176.62,755.697 1174.59,808.486 1139.65,832.24C1096.24,861.745 1060.13,847.694 1041.98,794.462L1019.25,805.4C1031.58,867.243 1009.86,903.021 967.038,923.506C894.354,958.278 890.082,904.216 863.687,885.897Z" style="stroke:#000;stroke-width:10.42px;"/><path d="M1091.17,741.304L1087.34,846.226C1067.86,841.701 1052.12,824.192 1041.98,794.462L1036.75,796.975L1037.95,776.267C1041.19,774.371 1044.39,772.418 1047.54,770.406C1061.13,758.443 1076.01,749.506 1091.17,741.304Z" style="fill:#8a8a8a;stroke:#000;stroke-width:10.42px;"/><g><path d="M-444.051,2591.54C-61.49,2230.3 298.997,1799.71 672.964,1032.32L896.647,1107.49C726.314,1299.38 407.605,2267.48 342.571,2533.42C326.381,2599.62 492.85,2671.87 504.268,2716.61C524.151,2794.51 465.793,2999.83 465.793,2999.83L-222.428,3441.84L-529.921,2614.25L-444.051,2591.54Z" style="fill:#fcd681;"/><path d="M657.96,1077.12C657.96,1077.12 542.492,1059.97 535.579,1047.88C528.665,1035.8 616.476,1004.6 616.476,1004.6C616.476,1004.6 671.53,995.957 688.106,973.062C707.959,945.641 743.07,926.984 750.98,903.992C758.634,881.743 748.291,851.655 735.565,835.111C722.84,818.567 713.375,817.929 700.135,816.893C669.527,814.498 668.829,771.874 689.361,763.292C695.879,754.376 728.781,766.427 733.463,771.054C740.623,778.13 746.083,751.097 756.108,750.181C767.747,749.116 777.125,761.226 787.321,767.295C797.269,773.217 810.445,762.019 822.194,780.356C850.771,824.959 870.026,818.122 875.015,816.579C913.915,804.542 923.787,786.691 942.794,783.776C979.779,778.103 1006.3,806.436 1039.16,813.565C1099.16,826.585 1268.2,813.051 1324.98,829.08C1345.2,834.787 1352,846.798 1353.21,860.934C1354.77,879.062 1334.66,928.161 1313.75,943.89C1292.83,959.62 1243.34,946.569 1217.19,958.953C1177.23,977.877 1119.32,1029.02 1075.79,1052.52C1039.01,1072.37 985.624,1087.84 955.964,1095.89C936.574,1101.15 916.044,1108.74 896.028,1105.7C793.401,1090.13 695.888,1052.3 657.96,1077.12Z" style="fill:#fcd681;"/></g><path d="M1037.44,813.172C1038.01,813.309 1038.58,813.441 1039.16,813.565C1080.25,822.48 1172.45,818.946 1244.74,820.978L1325.74,931.349C1321.88,936.482 1317.83,940.821 1313.75,943.89C1292.83,959.62 1243.34,946.569 1217.19,958.953C1179.64,976.736 1126.24,1022.97 1083.82,1047.97L934.998,1028.37L1001.3,1082.56C984.069,1088.1 968.047,1092.61 955.964,1095.89C936.574,1101.15 916.044,1108.74 896.028,1105.7C893.062,1105.26 890.101,1104.79 887.157,1104.3L896.647,1107.49C861.303,1147.31 819.57,1220.55 775.01,1314.07L673.139,1308.36L753.322,1360.67C714.084,1446.89 673.184,1546.66 632.969,1651.36L444.686,1652.12L599.299,1740.56C564.313,1834.8 530.354,1931.05 499.016,2023.45L91.871,2016.27L435.028,2217.88C405.609,2310.18 380.814,2392.54 362.798,2457.04L33.919,2445.25L383.651,2608.72C429.472,2649.97 497.134,2688.66 504.268,2716.61C511.842,2746.28 508.064,2794.44 500.482,2842.7L-312.051,2462.91C-253.172,2403.57 -194.728,2341.8 -136.544,2276.53L236.856,2289.92L-19.209,2139.48C52.756,2051.9 124.393,1957.93 195.978,1855.58L481.914,1860.62L273.48,1741.39C325.445,1662.51 377.42,1578.86 429.516,1489.67L652.29,1488.78L490.326,1383.12C532.806,1306.95 575.418,1226.87 618.184,1142.53L832.584,1154.53L641.925,998.681C658.662,993.762 679.083,985.524 688.106,973.062C707.959,945.641 743.07,926.984 750.98,903.992C758.135,883.194 749.563,855.545 738.018,838.513L1090.08,884.895L1037.44,813.172Z" style="fill:#914728;"/><path d="M1352.73,869.64C1349.42,891.505 1331.89,930.248 1313.75,943.89C1292.83,959.62 1243.34,946.569 1217.19,958.953C1177.23,977.877 1119.32,1029.02 1075.79,1052.52C1039.01,1072.37 985.624,1087.84 955.964,1095.89C936.574,1101.15 916.044,1108.74 896.028,1105.7C893.062,1105.26 890.101,1104.79 887.157,1104.3L896.647,1107.49C895.523,1108.76 894.392,1110.06 893.268,1111.38L885.634,1103.96C885.634,1103.96 1067.08,1016.75 1121.74,987.25C1155.23,969.177 1185.41,935.656 1216.7,923.896C1245.74,912.98 1286.3,926.585 1309.5,916.685C1326.33,909.501 1345.37,881.347 1352.73,869.64Z" style="fill-opacity:0.23;"/><path d="M1024.89,809.17C1025.14,809.264 1025.38,809.359 1025.63,809.453L1026.32,809.717C1027.81,819.623 1037.72,890.539 1021.02,911.766C1002.74,935.003 940.672,948.3 912.53,949.343C888.635,950.228 879.219,905.539 856.88,899.876C836.154,894.622 766.527,895.079 753.051,895.22C754.467,885.133 753.026,874.129 749.903,863.819L875.289,868.145L1024.75,809.114L1024.89,809.17Z" style="fill-opacity:0.23;"/><path d="M1019.45,805.3L1019.25,805.4C1031.58,867.243 1009.86,903.021 967.038,923.506C894.354,958.278 890.082,904.216 863.687,885.897C823.157,882.748 783.13,878.306 747.997,870.709C737.334,889.246 733.166,897.284 726.975,901.149C723.837,903.108 717.975,893.023 717.975,893.023C717.975,893.023 732.834,853.847 736.907,852.114C774.259,858.115 811.522,863.989 847.822,864.451C895.242,831.774 942.895,808.215 997.287,795.621L1019.45,805.3Z" style="stroke:#000;stroke-width:10.42px;"/><path d="M975.377,801.386L958.612,927.271C932.163,938.208 915.707,936.211 903.759,928.827L917.784,823.523C936.38,814.679 955.461,807.266 975.377,801.386Z" style="fill:#8a8a8a;stroke:#000;stroke-width:10.42px;"/><path d="M361.203,2585.88L354.209,2586.03C147.68,2403.1 696.2,1417.27 742.867,1080.31L887.361,1104.3L896.57,1107.53L887.785,1118.01C715.488,1332.29 406.493,2272.03 342.571,2533.42C338.347,2550.69 346.556,2568.37 361.203,2585.88Z" style="fill-opacity:0.25;"/><path d="M896.606,1107.51C896.95,1107.03 898.015,1105.9 898.015,1105.9L884.808,1103.92L893.184,1111.53C893.184,1111.53 895.928,1108.45 896.606,1107.51Z" style="fill:#6d351e;"/></g></g></g></svg>